<svg xmlns="http://www.w3.org/2000/svg" width="40" height="40" viewBox="0 0 40 40">
  <g fill="#2071B5">
    <path d="M10.5016766 33.2269627L10.035469 38.5378871C9.97053411 39.2776102 10.517558 39.9299144 11.2572811 39.9948494 11.2963789 39.9982815 11.3356081 40 11.3748562 40L28.2005437 40C28.9431114 40 29.5450815 39.3980299 29.5450815 38.6554622 29.5450815 38.600369 29.5416953 38.5453279 29.534942 38.4906501L28.8789877 33.1797258C28.795777 32.5060117 28.2234227 32 27.5445894 32L11.8410638 32C11.1440648 32 10.5626267 32.5326338 10.5016766 33.2269627zM13.6539305.161021109L26.0478624.161021109C26.6701215.161021109 27.2110824.588003713 27.355624 1.19324256L29.4454527 9.94397748C29.5386211 10.3341014 29.4527521 10.7454499 29.2112889 11.0657194L25.6223619 15.8259646C25.3683056 16.1629372 24.9707773 16.3610769 24.5487641 16.3610769L15.36028 16.3610769C14.9606827 16.3610769 14.5817901 16.1833352 14.3263434 15.8760488L10.3481892 11.0905778C10.0713078 10.7575067 9.97183478 10.3114474 10.0809671 9.89229373L12.3527719 1.1667846C12.5069966.57444093 13.0418388.161021109 13.6539305.161021109z"/>
    <path d="M0.101547988,37.376 L7.60035581,37.376 L7.60035581,30.7035394 C7.60035581,29.9609717 8.2023259,29.3590016 8.94489363,29.3590016 L30.5737946,29.3590016 C31.3163624,29.3590016 31.9183325,29.9609717 31.9183325,30.7035394 L31.9183325,37.376 L39.730031,37.376 L39.730031,13.376 L31.0916616,13.376 C30.681447,13.376 30.2936735,13.5632682 30.0386158,13.8845495 L26.167878,18.7602924 L13.7102581,18.7602924 L9.46024307,13.8414893 C9.2048424,13.5458984 8.83351119,13.376 8.44286625,13.376 L0.101547988,13.376 L0.101547988,37.376 Z"/>
  </g>
</svg>
